/* XPM */
static char *_0dc133f07aa4d128027ba9903b7982eb2deTS4ivKqiAJbM[] = {
/* columns rows colors chars-per-pixel */
"50 43 171 2 ",
"   c #010102",
".  c #060802",
"X  c #080806",
"o  c #040409",
"O  c #0D0D0B",
"+  c #0F100D",
"@  c #11120D",
"#  c #0E0E10",
"$  c #100F19",
"%  c #121213",
"&  c #22211B",
"*  c #222124",
"=  c #292839",
"-  c #302E47",
";  c #373545",
":  c #35334F",
">  c #403E55",
",  c #45445C",
"<  c #494761",
"1  c #4C4A65",
"2  c #4E4C68",
"3  c #504E6B",
"4  c #52516D",
"5  c #5C566A",
"6  c #5A566C",
"7  c #4F4F70",
"8  c #475275",
"9  c #545472",
"0  c #585772",
"q  c #565975",
"w  c #5A5976",
"e  c #53527A",
"r  c #5B567C",
"t  c #5B597E",
"y  c #635E78",
"u  c #5E617E",
"i  c #7D726D",
"p  c #676479",
"a  c #796E74",
"s  c #89756D",
"d  c #887772",
"f  c #8B7B7C",
"g  c #907C7E",
"h  c #99887C",
"j  c #A7937F",
"k  c #CFB57B",
"l  c #CEB87D",
"z  c #D1B67D",
"x  c #FCD367",
"c  c #F7D46C",
"v  c #FCD46C",
"b  c #FFD86F",
"n  c #FED672",
"m  c #F6D278",
"M  c #FBD57C",
"N  c #FCDA7A",
"B  c #575582",
"V  c #595783",
"C  c #5C5B82",
"Z  c #625783",
"A  c #615F82",
"S  c #5D6581",
"D  c #5C6587",
"F  c #5D6C93",
"G  c #616380",
"H  c #6A6F8C",
"J  c #706987",
"K  c #606D96",
"L  c #646F99",
"P  c #687898",
"I  c #787697",
"U  c #707D97",
"Y  c #7B7C99",
"T  c #73829D",
"R  c #6B87A6",
"E  c #7889A6",
"W  c #758FAC",
"Q  c #7795AD",
"!  c #7A96B4",
"~  c #7F99B5",
"^  c #7D9BBA",
"/  c #948683",
"(  c #8A8799",
")  c #AE9883",
"_  c #A09499",
"`  c #B49E92",
"'  c #BEA887",
"]  c #858DA8",
"[  c #8C9AB7",
"{  c #8199BC",
"}  c #909FBD",
"|  c #C1AB89",
" . c #CDB584",
".. c #D6BB83",
"X. c #C4AE93",
"o. c #CBB79C",
"O. c #D3BA91",
"+. c #D8C59A",
"@. c #E4C884",
"#. c #FBDB81",
"$. c #F8D889",
"%. c #E9D299",
"&. c #F9D997",
"*. c #FCD1BE",
"=. c #FBE1A2",
"-. c #85A4C3",
";. c #8AA8C3",
":. c #9DA5C2",
">. c #96ABC8",
",. c #94B1CC",
"<. c #97B6D1",
"1. c #95BBD4",
"2. c #9DBDDB",
"3. c #AFB6CB",
"4. c #A1BDD9",
"5. c #B5BED4",
"6. c #99C4DD",
"7. c #9BCCDD",
"8. c #9CCCE0",
"9. c #A5CBE5",
"0. c #AACAE4",
"q. c #A4D2E6",
"w. c #A6D4EA",
"e. c #A9D3EA",
"r. c #A5DEEE",
"t. c #A9DCEE",
"y. c #BFD2E7",
"u. c #B1D6EF",
"i. c #A7DFF0",
"p. c #ACDDF2",
"a. c #B2DDF3",
"s. c #BADCF5",
"d. c #A3E0EF",
"f. c #A9E0EF",
"g. c #ACE1F3",
"h. c #AAE2F5",
"j. c #B2E1F5",
"k. c #B3E3F9",
"l. c #DDC5C4",
"z. c #DDC7CB",
"x. c #C6C5D6",
"c. c #C7CAD8",
"v. c #D3D3D8",
"b. c #F6D5C3",
"n. c #FAD5C3",
"m. c #F9D9C8",
"M. c #E2D9DB",
"N. c #FBDBD3",
"B. c #C6D8ED",
"V. c #C6DEEF",
"C. c #E0DFE6",
"Z. c #D3E6F5",
"A. c #D6EAF6",
"S. c #D7EFFA",
"D. c #D8EEFB",
"F. c #D6F0FB",
"G. c #D9F1FD",
"H. c #DEF8FF",
"J. c #E3E3E5",
"K. c #E9E7EB",
"L. c #F1EDEF",
"P. c #FCF1EA",
"I. c #ECEAF0",
"U. c #E4FAFF",
"Y. c #F4F4F6",
"T. c #FBF6F6",
"R. c #F7F6F8",
"E. c #FDFDFD",
"W. c #FEFDFD",
"Q. c #FFFFFC",
"!. c #FDFCFE",
/* pixels */
"                                        X   X o   o           X X   o o X             X     X X     ",
"                                        4 2 2 2 2 1 2 2 2     o X X X   X       X X                 ",
"                                    - 1 2 2 2 2 2 2 2 2 2 2 2 4   % X             o         X       ",
"                                - 2 2 2 T w.e.e.e.t.t.e.e.p 2 2 2 2 % o X         X         X       ",
"                              3 2 2 S R w.f.f.i.r.f.d.t.i.r.r.E 2 2 2     X X     o       X X       ",
"                          : 1 1 u p.h.p.r.d.r.t.t.d.t.r.i.r.d.r.g.H 2 2 1 O X X       X     X o     ",
"                        1 2 3 W 8.p.d.d.d.d.d.r.r.r.r.r.r.t.r.r.r.d.7.4 2 2     X           X       ",
"                      2 2 U t.t.p.a.j.g.r.r.r.t.t.r.r.t.g.j.g.g.t.r.r.r.E 2 2                       ",
"                    1 2 T t.r.r.r.r.r.t.r.r.r.r.t.t.g.r.r.r.r.r.d.r.r.t.r.! 2 2   X         X       ",
"                  1 2 T p.t.p.j.1 2 1 3 2 1 u.r.t.t.f.2 2 1 2 2 2 d.t.f.r.r.q 2 2         X X       ",
"                : 2 q a.p.g.1.1 3.x.x.x.x.5.2 d.f.r.r.1 x.c.x.x.x.3 r.f.f.r.r.2 2 2 O X             ",
"                2 2 W t.t.p.2 9 !.!.!.!.!.K.w t.r.r.r.1 !.!.!.!.Y.I 2 d.t.r.t.7.q 2     o X   X     ",
"              : 2 4.r.i.1.1 :.!.!.!.!.!.!.Y.J.3 r.r.2 I.!.!.!.Q.!.!.c.2 r.r.r.f.u 2 3               ",
"            4 2 C r.r.d.2 A !.!.!.!.!.Q.!.Q.!.J.2 2 !.Q.!.!.Q.Q.!.!.!.J 2 2 r.r.w.2 2   X o         ",
"            1 2 d.r.d.d.2 !.!.!.!.!.!.!.Q.Q.!.!.!.!.!.!.Q.!.!.!.!.!.!.K.v.2 r.r.f.u 2 3 + X         ",
"          - 2 H r.p.d.r.2 !.!.!.!.Q.!.!.!.!.!.!.!.!.Q.!.!.!.!.!.!.!.!.!.J.2 r.r.d.7.q 2   X X       ",
"          2 3 9.t.i.r.r.2 !.!.!.( 2 Q.!.!.!.4 1 2 2 2 Q.Q.!.!.( 2 !.!.Q.J.2 r.r.d.r.2 2 2 . o X     ",
"      o   2 9 e.r.p.d.r.2 T.P.P.2 3 !.!.!.4 2 f f g 5 2 !.!.!.2 2 Q.!.!.M.2 r.p.r.r.r.2 2 o . O     ",
"          2 7 e.t.p.r.r.2 m.b.*.2 2 !.Q.4 2 o.&.&.&.=.y 2 Q.!.2 2 *.m.m.l.2 r.r.r.r.r.2 2 . o +     ",
"          2 2 e.h.p.r.r.2 m.*.*.L.Q.!.!.!.2 6 j ) ) a 3 Y.!.!.!.!.*.m.*.l.2 r.t.d.r.r.2 2 o . +     ",
"          1 2 e.t.g.r.r.2 N.b.n.T.!.!.!.!.!.2 2 2 3 2 Q.Q.!.!.!.!.*.b.m.z.2 i.p.t.r.r.2 2 X X +     ",
"          2 2 e.d.t.r.r.2 2 2 !.!.!.!.!.!.!.Q.!.2 4 Q.!.!.Q.!.!.!.!.!.2 2 1 i.r.d.t.r.2 2 o   +     ",
"      o   1 2 w.r.i.r.t.,.9 2 !.!.!.!.!.!.!.!.!.2 w Q.Q.Q.!.!.Q.!.!.!.2 1 a.p.g.r.t.r.2 4 o   +     ",
"          2 2 e.i.g.i.P 2 !.!.!.!.!.!.!.!.4 2 2 2 2 2 2 Q.!.!.Q.!.!.!.!.!.2 { p.r.p.r.2 2 X X +     ",
"      o   2 2 w.t.t.t.D 2 !.!.!.!.!.!.!.9 2 1 1 2 2 2 2 2 !.!.!.!.!.!.!.!.3 ! r.i.p.p.2 1 o o @     ",
"          1 2 q.r.t.t.e.>.2 2 2 3 0 !.!.2 D.V.5.2 4 Z.F.2 !.!.2 2 2 2 2 2 0.w.r.r.p.d.2 1 X   +     ",
"          3 2 w.r.t.r.t.<.F L K L 2 2 !.2 G.S.B.2 q U.S.2 !.2 2 F L L F R p.t.r.i.p.r.1 3 X o +     ",
"          2 2 w.t.t.t.t.g.p.a.t.p.s.2 2 2 D.S.y.4 p U.S.2 2 2 4.s.p.a.a.t.a.p.p.r.d.r.2 1 X   O     ",
"          2 2 e.t.p.t.r.t.r.t.t.p.g.p.2 2 G.S.V.E :.H.G.2 4 p.r.r.r.w.w.w.w.t.t.r.p.r.2 2 X   O     ",
"    .   2 2 2 w.p.k.,.2 V B V e B 2 2 Y.3 G.A.S.D.S.G.G.2 !.2 2 e t V B V 3 W a.r.a.r.2 1 X   &     ",
"      2 2 2 U i.r.-.2 !.!.!.!.R.R.R.!.!.3 G.A.G.D.D.H.S.2 !.!.!.R.Q.!.!.!.!.2 -.6.g.r.2 2     X     ",
"      2 2 q k.p.9.2 Y.!.!.!.!.!.!.!.!.!.!.3 A.G.G.G.G.2 R.R.!.!.!.!.!.!.!.!.Y.2 ~ k.p.,.2 1   X     ",
"      2 2 ;.p.G 2 !.R.R.R.R.R.R.R.R.R.R.R.2 2 ] } Y 2 2 R.R.!.R.!.!.!.!.!.R.R.R.2 Q 1.j.2 2   X     ",
"      2 2 1.e.2 H !.!.2 t r C r 2 2 v.R.R.R.G y Z 3 4 R.R.R.!.Y 2 t G t Z 2 R.!.Y.8 ^ a.4 2         ",
"      2 2 1.p.1.<.] 2 l z k z k z  .2 J.T.R.R.R.R.R.R.R.R.R.( 2 l k k z l  .2 ( } 2.9.t.4 2   @     ",
"      2 2 4 q.h.0.3 h M n b n n n $.s 1 R.R.R.R.R.R.R.R.R.R.2 ..N n n n b N ' 2 ^ g.f.[ 2 2   X     ",
"      2 2 2 2 q.0.2 / M v x v x b #.d 3 T.T.R.R.R.R.R.R.R.R.1 ..n v v v v n ' t { k.Q 2 2   O o     ",
"        2 2 2 q 6.3 / @.m c M $.@.%._ 1 R.R.!.T.R.R.R.R.R.R.2 +.@.$.N v n @.` C { 0.1 2       o     ",
"          2 2 2 2 2 2 w | N #.=.i 2 2 2 2 2 2 2 2 2 2 2 2 2 2 2 < +.#.b @.5 1 2 2 2 1     X   X     ",
"            # 3 2 2 2 2 2 X.+.y 2 2 2 2 < < 1 2 1 1 2 1 1 2 2 4 2 2 O...6 1 1 2 2 2     X @   X     ",
"              o o o $ 3 3 3 3 2 2 , o   o   o o o     o o       < 2 2 2 2 1     % $ #       X       ",
"                        ; 3 3 2 =                         o     o > < 2 , *   X X X         X       ",
"                    .     o                 .   o                       X   X               X       "
};
